<mxfile host="65bd71144e">
    <diagram id="-PpzwEVTADR4msMIEhI9" name="Page-1">
        <mxGraphModel dx="261" dy="138" grid="1" gridSize="10" guides="1" tooltips="1" connect="1" arrows="1" fold="1" page="1" pageScale="1" pageWidth="827" pageHeight="1169" math="0" shadow="0">
            <root>
                <mxCell id="0"/>
                <mxCell id="1" parent="0"/>
                <mxCell id="6" value="" style="whiteSpace=wrap;html=1;aspect=fixed;" vertex="1" parent="1">
                    <mxGeometry x="140" y="265" width="570" height="570" as="geometry"/>
                </mxCell>
                <mxCell id="7" value="SOC" style="text;html=1;align=center;verticalAlign=middle;whiteSpace=wrap;rounded=0;" vertex="1" parent="1">
                    <mxGeometry x="160" y="275" width="60" height="30" as="geometry"/>
                </mxCell>
                <mxCell id="12" value="" style="group" vertex="1" connectable="0" parent="1">
                    <mxGeometry x="600" y="315" width="90" height="90" as="geometry"/>
                </mxCell>
                <mxCell id="10" value="" style="whiteSpace=wrap;html=1;aspect=fixed;" vertex="1" parent="12">
                    <mxGeometry width="90" height="90" as="geometry"/>
                </mxCell>
                <mxCell id="11" value="CLINT" style="text;html=1;align=center;verticalAlign=middle;whiteSpace=wrap;rounded=0;" vertex="1" parent="12">
                    <mxGeometry width="60" height="30" as="geometry"/>
                </mxCell>
                <mxCell id="13" value="" style="group" vertex="1" connectable="0" parent="1">
                    <mxGeometry x="160" y="330" width="400" height="400" as="geometry"/>
                </mxCell>
                <mxCell id="8" value="" style="whiteSpace=wrap;html=1;aspect=fixed;" vertex="1" parent="13">
                    <mxGeometry width="400" height="400" as="geometry"/>
                </mxCell>
                <mxCell id="9" value="RV32i" style="text;html=1;align=center;verticalAlign=middle;whiteSpace=wrap;rounded=0;" vertex="1" parent="13">
                    <mxGeometry width="63.529411764705884" height="30.882352941176467" as="geometry"/>
                </mxCell>
                <mxCell id="19" value="" style="group" vertex="1" connectable="0" parent="13">
                    <mxGeometry x="19.99823529411764" y="95.00058823529412" width="116.47058823529412" height="174.99999999999997" as="geometry"/>
                </mxCell>
                <mxCell id="14" value="" style="rounded=0;whiteSpace=wrap;html=1;" vertex="1" parent="19">
                    <mxGeometry width="116.47058823529412" height="174.99999999999997" as="geometry"/>
                </mxCell>
                <mxCell id="18" value="CSR_Control" style="text;html=1;align=center;verticalAlign=middle;whiteSpace=wrap;rounded=0;" vertex="1" parent="19">
                    <mxGeometry x="10.588235294117647" width="63.529411764705884" height="30.882352941176467" as="geometry"/>
                </mxCell>
                <mxCell id="21" value="" style="group" vertex="1" connectable="0" parent="13">
                    <mxGeometry x="210.0035294117647" y="95.00058823529412" width="127.05882352941177" height="174.99999999999997" as="geometry"/>
                </mxCell>
                <mxCell id="15" value="" style="rounded=0;whiteSpace=wrap;html=1;" vertex="1" parent="21">
                    <mxGeometry width="127.05882352941177" height="174.99999999999997" as="geometry"/>
                </mxCell>
                <mxCell id="20" value="CSR_Reg" style="text;html=1;align=center;verticalAlign=middle;whiteSpace=wrap;rounded=0;" vertex="1" parent="21">
                    <mxGeometry width="63.529411764705884" height="30.882352941176467" as="geometry"/>
                </mxCell>
                <mxCell id="29" value="&lt;font style=&quot;color: rgb(204, 0, 0);&quot;&gt;mip_in[7]&lt;/font&gt;" style="text;html=1;align=center;verticalAlign=middle;whiteSpace=wrap;rounded=0;" vertex="1" parent="13">
                    <mxGeometry x="330" y="20" width="60" height="30" as="geometry"/>
                </mxCell>
                <mxCell id="30" value="" style="edgeStyle=none;html=1;entryX=1.001;entryY=0.074;entryDx=0;entryDy=0;entryPerimeter=0;" edge="1" parent="13" target="14">
                    <mxGeometry relative="1" as="geometry">
                        <mxPoint x="210" y="108" as="sourcePoint"/>
                    </mxGeometry>
                </mxCell>
                <mxCell id="32" value="" style="rounded=0;whiteSpace=wrap;html=1;" vertex="1" parent="13">
                    <mxGeometry x="20" y="285" width="120" height="105" as="geometry"/>
                </mxCell>
                <mxCell id="33" value="" style="rounded=0;whiteSpace=wrap;html=1;" vertex="1" parent="13">
                    <mxGeometry x="210" y="285" width="120" height="105" as="geometry"/>
                </mxCell>
                <mxCell id="34" value="int_control&lt;span style=&quot;font-family: monospace; font-size: 0px; text-align: start; text-wrap: nowrap;&quot;&gt;%3CmxGraphModel%3E%3Croot%3E%3CmxCell%20id%3D%220%22%2F%3E%3CmxCell%20id%3D%221%22%20parent%3D%220%22%2F%3E%3CmxCell%20id%3D%222%22%20value%3D%22%22%20style%3D%22rounded%3D0%3BwhiteSpace%3Dwrap%3Bhtml%3D1%3B%22%20vertex%3D%221%22%20parent%3D%221%22%3E%3CmxGeometry%20x%3D%22190%22%20y%3D%22600%22%20width%3D%22120%22%20height%3D%22105%22%20as%3D%22geometry%22%2F%3E%3C%2FmxCell%3E%3C%2Froot%3E%3C%2FmxGraphModel%3E&lt;/span&gt;" style="text;html=1;align=center;verticalAlign=middle;whiteSpace=wrap;rounded=0;" vertex="1" parent="13">
                    <mxGeometry x="20" y="285" width="60" height="30" as="geometry"/>
                </mxCell>
                <mxCell id="35" value="mret_on" style="text;html=1;align=center;verticalAlign=middle;whiteSpace=wrap;rounded=0;" vertex="1" parent="13">
                    <mxGeometry x="210" y="285" width="60" height="30" as="geometry"/>
                </mxCell>
                <mxCell id="36" value="" style="edgeStyle=none;html=1;entryX=1;entryY=0;entryDx=0;entryDy=0;" edge="1" parent="13" source="15" target="32">
                    <mxGeometry relative="1" as="geometry"/>
                </mxCell>
                <mxCell id="39" value="&lt;font style=&quot;color: rgb(204, 0, 0);&quot;&gt;mip&lt;/font&gt;" style="text;html=1;align=center;verticalAlign=middle;whiteSpace=wrap;rounded=0;rotation=-45;" vertex="1" parent="13">
                    <mxGeometry x="136.47" y="240" width="60" height="30" as="geometry"/>
                </mxCell>
                <mxCell id="27" value="" style="edgeStyle=segmentEdgeStyle;endArrow=classic;html=1;curved=0;rounded=0;endSize=8;startSize=8;exitX=0;exitY=0.5;exitDx=0;exitDy=0;entryX=0.915;entryY=0.006;entryDx=0;entryDy=0;entryPerimeter=0;" edge="1" parent="1" source="10" target="15">
                    <mxGeometry width="50" height="50" relative="1" as="geometry">
                        <mxPoint x="450" y="440" as="sourcePoint"/>
                        <mxPoint x="500" y="390" as="targetPoint"/>
                    </mxGeometry>
                </mxCell>
                <mxCell id="28" value="&lt;font style=&quot;color: rgb(204, 0, 0); font-size: 8px;&quot;&gt;interrupt&lt;/font&gt;" style="text;html=1;align=center;verticalAlign=middle;whiteSpace=wrap;rounded=0;" vertex="1" parent="1">
                    <mxGeometry x="560" y="330" width="50" height="30" as="geometry"/>
                </mxCell>
            </root>
        </mxGraphModel>
    </diagram>
</mxfile>